<svg
   xmlns:dc="http://purl.org/dc/elements/1.1/"
   xmlns:cc="http://creativecommons.org/ns#"
   xmlns:rdf="http://www.w3.org/1999/02/22-rdf-syntax-ns#"
   xmlns:svg="http://www.w3.org/2000/svg"
   xmlns="http://www.w3.org/2000/svg"
   viewBox="0 0 666.66669 312"
   height="112"
   width="168"
   xml:space="preserve"
   id="svg2"
   version="1.1"><metadata
     id="metadata8"><rdf:RDF><cc:Work
         rdf:about=""><dc:format>image/svg+xml</dc:format><dc:type
           rdf:resource="http://purl.org/dc/dcmitype/StillImage" /></cc:Work></rdf:RDF></metadata><defs
     id="defs6" /><g
     transform="matrix(1.3333333,0,0,-1.3333333,0,312)"
     id="g10"><g
       transform="scale(0.1)"
       id="g12"><path
         id="path14"
         style="fill:#fff;fill-opacity:1;fill-rule:nonzero;stroke:none"
         d="m 2778.07,2047.81 c -32.72,0 -55.37,-15.1 -70.47,-34.4 -21.82,-28.52 -27.69,-67.95 -27.69,-105.7 0,-37.76 5.87,-78.02 27.69,-106.55 15.1,-19.3 37.75,-34.39 70.47,-34.39 82.21,0 98.99,78.02 98.99,140.94 0,62.91 -16.78,140.1 -98.99,140.1 z m 108.22,-359.06 -6.71,47.81 c -26.01,-40.27 -74.67,-57.88 -122.48,-57.88 -43.63,0 -79.71,15.1 -106.55,36.91 -52.02,42.79 -77.18,108.22 -77.18,190.43 0,85.58 26,151.85 78.02,194.64 26.84,21.81 62.08,35.23 106.54,35.23 55.37,0 95.64,-18.45 114.1,-41.1 v 199.66 h 104.86 v -605.7 h -90.6" /><path
         id="path16"
         style="fill:#fff;fill-opacity:1;fill-rule:nonzero;stroke:none"
         d="m 3092.7,1688.75 v 436.24 h 106.54 v -436.24 z m -3.36,496.64 v 108.22 h 112.41 v -108.22 h -112.41" /><path
         id="path18"
         style="fill:#fff;fill-opacity:1;fill-rule:nonzero;stroke:none"
         d="m 3476.09,2057.04 c -47.82,0 -77.18,-34.4 -77.18,-81.38 0,-46.98 29.36,-80.54 77.18,-80.54 47.82,0 77.18,33.56 77.18,80.54 0,46.98 -29.36,81.38 -77.18,81.38 z m 19.29,-375.01 h -82.21 c -22.65,-6.71 -39.43,-26.01 -39.43,-53.69 0,-55.37 68.79,-60.4 109.9,-60.4 41.95,0 115.77,2.51 115.77,60.4 0,53.69 -64.6,53.69 -104.03,53.69 z m -7.55,-197.14 c -52.85,0 -109.06,4.19 -154.35,36.07 -33.57,23.49 -52.87,54.53 -52.87,95.64 0,37.75 18.46,72.15 52.03,88.92 -27.69,15.1 -43.64,46.14 -43.64,74.67 0,36.91 16.79,66.27 52.03,88.09 -26.85,26.84 -43.63,62.92 -43.63,107.38 0,104.03 80.54,160.23 178.69,160.23 36.08,0 70.47,-10.07 99,-26.84 18.44,37.75 52.01,54.53 88.92,54.53 6.71,0 21.81,0 28.52,-1.68 v -81.38 c -2.51,0 -5.87,0.84 -8.39,0.84 -24.33,0 -46.13,-6.71 -52.85,-27.68 14.27,-23.49 22.66,-49.5 22.66,-78.86 0,-99.84 -83.9,-158.56 -177.86,-158.56 -24.33,0 -48.66,4.2 -70.48,11.75 -10.05,-5.88 -21.8,-16.78 -21.8,-31.04 0,-26.01 26,-31.88 47.82,-31.88 h 72.14 c 43.63,0 100.67,-0.84 141.79,-29.37 37.74,-26 52.85,-62.91 52.85,-104.86 0,-114.93 -113.26,-145.97 -210.58,-145.97" /><path
         id="path20"
         style="fill:#fff;fill-opacity:1;fill-rule:nonzero;stroke:none"
         d="m 3778.12,1688.75 v 436.24 h 106.56 v -436.24 z m -3.34,496.64 v 108.22 h 112.41 v -108.22 h -112.41" /><path
         id="path22"
         style="fill:#fff;fill-opacity:1;fill-rule:nonzero;stroke:none"
         d="m 4172.43,1682.87 c -88.08,0 -131.71,50.34 -131.71,134.23 v 221.48 h -79.69 v 86.41 h 79.69 v 110.74 l 104.87,26 v -136.74 h 109.9 v -86.41 h -109.9 v -212.25 c 0,-33.56 15.09,-47.82 48.66,-47.82 21.8,0 39.42,0.84 67.95,4.2 v -88.09 c -29.37,-7.55 -58.72,-11.75 -89.77,-11.75" /><path
         id="path24"
         style="fill:#fff;fill-opacity:1;fill-rule:nonzero;stroke:none"
         d="m 4591.07,1882.54 -110.74,-8.39 c -31.87,-2.52 -62.92,-21.81 -62.92,-57.05 0,-33.55 29.37,-54.53 62.08,-54.53 65.44,0 111.58,35.24 111.58,99.83 z m 88.09,-200.51 c -45.3,0 -70.47,28.53 -73.83,61.25 -20.13,-35.24 -70.47,-65.44 -132.55,-65.44 -104.02,0 -157.71,65.44 -157.71,136.75 0,83.05 64.6,130.87 147.64,136.74 l 128.36,9.23 v 26.84 c 0,41.11 -14.26,68.8 -73.82,68.8 -48.66,0 -77.18,-21.81 -79.7,-62.08 h -101.52 c 5.88,98.15 83.9,141.77 181.22,141.77 74.66,0 138.42,-23.49 163.59,-88.92 10.91,-27.69 12.58,-58.73 12.58,-88.09 v -161.91 c 0,-20.14 6.72,-27.69 24.33,-27.69 6.71,0 13.42,1.68 13.42,1.68 v -77.18 c -17.62,-7.55 -26.84,-11.75 -52.01,-11.75" /><path
         id="path26"
         style="fill:#fff;fill-opacity:1;fill-rule:nonzero;stroke:none"
         d="m 4905.69,1683.71 c -71.31,0 -119.13,34.4 -119.13,117.45 v 494.13 h 105.71 v -476.51 c 0,-25.17 5.87,-41.95 41.94,-41.95 9.23,0 11.75,0.84 17.63,0.84 v -88.08 c -20.98,-4.2 -25.18,-5.88 -46.15,-5.88" /><path
         id="path28"
         style="fill:#fff;fill-opacity:1;fill-rule:nonzero;stroke:none"
         d="m 2904.75,982.578 c -35.24,-35.238 -89.77,-50.34 -149.33,-50.34 -55.37,0 -104.87,15.942 -140.95,50.34 -25.16,24.332 -46.13,60.402 -46.13,101.512 h 98.15 c 0,-19.3 10.07,-40.27 23.49,-51.17 16.78,-13.43 36.07,-19.3 66.28,-19.3 35.23,0 88.93,7.55 88.93,55.37 0,25.17 -16.78,41.95 -43.63,46.14 -38.59,5.87 -82.21,8.39 -120.81,16.78 -59.56,12.58 -99.83,61.24 -99.83,116.61 0,44.46 18.45,75.5 44.46,98.16 31.89,27.68 78.03,43.62 132.55,43.62 52.02,0 104.87,-16.78 136.75,-51.18 23.49,-25.16 38.59,-57.88 38.59,-89.76 h -99.83 c 0,16.78 -7.55,30.2 -17.62,41.1 -12.59,12.59 -35.23,20.14 -57.05,20.14 -15.1,0 -29.36,0 -45.3,-6.71 -18.46,-7.55 -33.56,-23.49 -33.56,-46.14 0,-31.04 26.85,-40.27 50.34,-43.63 39.43,-5.03 50.34,-5.87 93.12,-12.58 68.79,-10.91 119.13,-54.53 119.13,-123.32 0,-41.95 -15.1,-72.99 -37.75,-95.642" /><path
         id="path30"
         style="fill:#fff;fill-opacity:1;fill-rule:nonzero;stroke:none"
         d="m 3192.52,937.281 c -88.09,0 -131.71,50.328 -131.71,134.219 v 221.48 h -79.7 v 86.41 h 79.7 v 110.74 l 104.86,26.01 v -136.75 h 109.91 v -86.41 h -109.91 v -212.25 c 0,-33.55 15.1,-47.81 48.67,-47.81 21.8,0 39.42,0.83 67.94,4.19 v -88.09 c -29.36,-7.551 -58.72,-11.739 -89.76,-11.739" /><path
         id="path32"
         style="fill:#fff;fill-opacity:1;fill-rule:nonzero;stroke:none"
         d="m 3601.93,1271.17 c -14.26,15.1 -37.75,27.69 -66.28,27.69 -28.52,0 -52.01,-12.59 -66.27,-27.69 -25.16,-27.68 -31.04,-68.79 -31.04,-109.9 0,-41.11 5.88,-82.21 31.04,-109.9 14.26,-15.1 37.75,-27.68 66.27,-27.68 28.53,0 52.02,12.58 66.28,27.68 25.17,27.69 31.04,68.79 31.04,109.9 0,41.11 -5.87,82.22 -31.04,109.9 z m 86.41,-270.97 c -30.2,-36.919 -86.41,-67.962 -152.69,-67.962 -66.27,0 -122.48,31.043 -152.68,67.962 -32.72,41.1 -51.17,87.25 -51.17,161.07 0,73.83 18.45,119.97 51.17,161.07 30.2,36.92 86.41,67.96 152.68,67.96 66.28,0 122.49,-31.04 152.69,-67.96 32.72,-41.1 51.17,-87.24 51.17,-161.07 0,-73.82 -18.45,-119.97 -51.17,-161.07" /><path
         id="path34"
         style="fill:#fff;fill-opacity:1;fill-rule:nonzero;stroke:none"
         d="m 4041.54,1286.27 c -73.82,0 -112.41,-52.85 -112.41,-123.32 V 943.148 h -105.7 v 436.242 h 88.92 l 9.23,-65.43 c 20.13,50.33 72.15,71.31 123.32,71.31 10.91,0 21.82,-0.84 32.72,-2.52 v -100.67 c -11.74,2.51 -24.33,4.19 -36.08,4.19" /><path
         id="path36"
         style="fill:#fff;fill-opacity:1;fill-rule:nonzero;stroke:none"
         d="m 4375.46,868.488 c -21.82,-57.047 -57.89,-109.066 -134.23,-109.066 -34.39,0 -57.89,5.039 -80.54,10.91 v 87.246 c 27.69,-5.039 35.24,-7.547 58.72,-7.547 19.3,0 39.44,6.707 50.35,32.707 l 25.16,61.25 -171.98,435.402 h 114.93 l 114.09,-315.43 109.07,315.43 h 106.54 L 4375.46,868.488" /><path
         id="path38"
         style="fill:#fff;fill-opacity:1;fill-rule:nonzero;stroke:none"
         d="m 2768.42,215.602 c -88.09,0 -131.71,50.339 -131.71,134.23 v 221.477 h -79.7 v 86.402 h 79.7 v 110.75 l 104.86,26 v -136.75 h 109.9 v -86.402 h -109.9 v -212.25 c 0,-33.559 15.1,-47.821 48.66,-47.821 21.81,0 39.43,0.84 67.95,4.192 v -88.078 c -29.36,-7.563 -58.72,-11.75 -89.76,-11.75" /><path
         id="path40"
         style="fill:#fff;fill-opacity:1;fill-rule:nonzero;stroke:none"
         d="m 3192.09,559.559 c -14.26,15.101 -36.07,25.171 -66.27,25.171 -31.88,0 -57.89,-13.421 -72.99,-33.558 -15.11,-19.293 -21.81,-39.434 -22.65,-67.953 h 188.76 c -0.84,32.722 -10.07,57.89 -26.85,76.34 z m 130.88,-152.68 h -291.95 c -0.84,-33.559 10.9,-65.438 31.88,-85.57 15.1,-14.258 36.07,-26.848 64.59,-26.848 30.21,0 48.66,5.871 63.76,20.969 9.23,9.23 16.78,20.98 20.98,36.922 h 100.67 c -2.52,-26.012 -20.14,-60.411 -36.91,-80.543 -36.92,-43.629 -91.45,-61.239 -146.82,-61.239 -59.56,0 -103.18,20.969 -137.58,53.692 -43.63,41.949 -67.12,103.187 -67.12,174.488 0,69.641 20.98,131.719 62.92,174.5 32.72,33.559 79.7,55.371 139.26,55.371 64.6,0 123.33,-26 159.4,-80.531 31.88,-47.82 39.43,-97.32 37.75,-151.852 0,0 -0.83,-20.136 -0.83,-29.359" /><path
         id="path42"
         style="fill:#fff;fill-opacity:1;fill-rule:nonzero;stroke:none"
         d="m 3521.82,216.441 c -71.31,0 -119.13,34.387 -119.13,117.45 V 828.02 h 105.7 V 351.512 c 0,-25.172 5.87,-41.953 41.94,-41.953 9.23,0 11.75,0.839 17.62,0.839 v -88.089 c -20.97,-4.188 -25.17,-5.868 -46.13,-5.868" /><path
         id="path44"
         style="fill:#fff;fill-opacity:1;fill-rule:nonzero;stroke:none"
         d="m 3775.18,216.441 c -71.31,0 -119.14,34.387 -119.14,117.45 V 828.02 h 105.71 V 351.512 c 0,-25.172 5.87,-41.953 41.94,-41.953 9.23,0 11.75,0.839 17.62,0.839 v -88.089 c -20.97,-4.188 -25.17,-5.868 -46.13,-5.868" /><path
         id="path46"
         style="fill:#fff;fill-opacity:1;fill-rule:nonzero;stroke:none"
         d="m 3913.59,221.469 v 436.242 h 106.56 V 221.469 Z m -3.35,496.652 V 826.34 h 112.42 V 718.121 h -112.42" /><path
         id="path48"
         style="fill:#fff;fill-opacity:1;fill-rule:nonzero;stroke:none"
         d="M 4401.03,221.469 V 489.09 c 0,51.18 -16.78,82.219 -72.15,82.219 -36.92,0 -61.24,-23.489 -75.51,-55.368 -15.1,-34.402 -14.26,-79.703 -14.26,-116.613 V 221.469 h -104.86 v 436.242 h 88.08 l 7.55,-56.199 c 26.01,46.136 78.02,67.109 128.36,67.109 93.12,0 147.65,-65.43 147.65,-156.043 V 221.469 h -104.86" /><path
         id="path50"
         style="fill:#fff;fill-opacity:1;fill-rule:nonzero;stroke:none"
         d="m 4775.2,589.77 c -47.82,0 -77.18,-34.399 -77.18,-81.379 0,-46.981 29.36,-80.539 77.18,-80.539 47.82,0 77.18,33.558 77.18,80.539 0,46.98 -29.36,81.379 -77.18,81.379 z m 19.29,-375 h -82.21 c -22.65,-6.719 -39.43,-26.02 -39.43,-53.7 0,-55.371 68.79,-60.398 109.9,-60.398 41.95,0 115.78,2.508 115.78,60.398 0,53.7 -64.6,53.7 -104.04,53.7 z m -7.55,-197.1489 c -52.85,0 -109.06,4.1875 -154.35,36.0703 -33.57,23.4883 -52.86,54.5276 -52.86,95.6406 0,37.746 18.45,72.137 52.02,88.918 -27.69,15.102 -43.63,46.141 -43.63,74.672 0,36.91 16.78,66.269 52.02,88.09 -26.85,26.84 -43.63,62.918 -43.63,107.379 0,104.031 80.54,160.23 178.69,160.23 36.08,0 70.47,-10.07 99,-26.84 18.45,37.75 52.01,54.528 88.92,54.528 6.71,0 21.81,0 28.52,-1.68 V 613.25 c -2.51,0 -5.87,0.84 -8.39,0.84 -24.32,0 -46.14,-6.711 -52.85,-27.68 14.27,-23.488 22.66,-49.5 22.66,-78.859 0,-99.84 -83.9,-158.563 -177.86,-158.563 -24.33,0 -48.66,4.203 -70.47,11.75 -10.06,-5.879 -21.81,-16.777 -21.81,-31.039 0,-26.008 26.01,-31.879 47.82,-31.879 h 72.15 c 43.62,0 100.66,-0.84 141.78,-29.359 37.74,-26.012 52.85,-62.922 52.85,-104.871 0,-114.9298 -113.26,-145.9689 -210.58,-145.9689" /><path
         id="path52"
         style="fill:#fff;fill-opacity:1;fill-rule:nonzero;stroke:none"
         d="M 1870,830 H 880 V 210 H 210 v 1920 h 1310 v -610 h 350 z M 0,2340 V 0 H 2340 V 2340 H 0" /></g></g></svg>