<?xml version="1.0" encoding="utf-8"?>
<!-- Generator: Adobe Illustrator 19.2.1, SVG Export Plug-In . SVG Version: 6.00 Build 0)  -->
<svg version="1.1"
	 id="Layer_1" xmlns:cc="http://creativecommons.org/ns#" xmlns:dc="http://purl.org/dc/elements/1.1/" xmlns:rdf="http://www.w3.org/1999/02/22-rdf-syntax-ns#" xmlns:svg="http://www.w3.org/2000/svg"
	 xmlns="http://www.w3.org/2000/svg" xmlns:xlink="http://www.w3.org/1999/xlink" x="0px" y="0px" viewBox="0 0 500 500"
	 style="enable-background:new 0 0 500 500;" xml:space="preserve">
<style type="text/css">
	.st0{fill:#FFFFFF;}
</style>
<path class="st0" d="M0,0L0,0L0,0L0,0L0,0l0.1,0l0,0l0,0l0,0l0,0l0,0l0,0l0,0l0,0l0,0l0,0l0,0l0,0l0,0l0,0l0,0l0,0l0,0l0,0l0,0l0,0
	l0,0l0,0l0,0l0,0l0,0l0,0l0,0l0,0l0,0l0,0l0,0l0,0l0,0l0,0l0,0l0,0l0,0l0,0l0,0l0,0l0,0l0,0l0,0l0,0l0,0v1l0,0l0,0l0,0l0,0l0,0l0,0
	l0,0l0,0l0,0l0,0l0,0l0,0l0,0l0,0l0,0l0,0l0,0l0,0l0,0l0,0l0,0l0,0l0,0l0,0l0,0l0,0l0,0l0,0l0,0l0,0l0,0l0,0l0,0l0,0l0,0l0,0l0,0
	l0,0l0,0l0,0l0,0l0,0l0,0l0,0l0,0l0,0l0,0l0,0l0,0l0,0V0z"/>
<g>
	<path class="st0" d="M0,500V0l10,10L20,0l10,10L40,0l10,10L60,0l10,10L80,0l10,10l10-10l10,10l10-10l10,10l10-10l10,10l10-10l10,10
		l10-10l10,10l10-10l10,10l10-10l10,10l10-10l10,10l10-10l10,10l10-10l10,10l10-10l10,10l10-10l10,10l10-10l10,10l10-10l10,10l10-10
		l10,10l10-10l10,10l10-10l10,10l10-10l10,10l10-10l10,10l10-10l10,10l10-10v500"/>
	<path class="st0" d="M480,500l-10-10l-10,10l-10-10l-10,10l-10-10l-10,10l-10-10l-10,10l-10-10l-10,10l-10-10l-10,10l-10-10l-10,10
		l-10-10l-10,10l-10-10l-10,10l-10-10l-10,10l-10-10l-10,10l-10-10l-10,10l-10-10l-10,10l-10-10l-10,10l-10-10l-10,10l-10-10l-10,10
		l-10-10l-10,10l-10-10l-10,10l-10-10l-10,10l-10-10l-10,10l-10-10l-10,10l-10-10l-10,10l-10-10l-10,10"/>
</g>
</svg>
